<?xml version="1.0" encoding="utf-8"?>
<!-- Generator: Adobe Illustrator 26.0.1, SVG Export Plug-In . SVG Version: 6.00 Build 0)  -->
<svg version="1.1" id="Layer_1" xmlns="http://www.w3.org/2000/svg" xmlns:xlink="http://www.w3.org/1999/xlink" x="0px" y="0px"
	 viewBox="0 0 192 192" style="enable-background:new 0 0 192 192;" xml:space="preserve">
<style type="text/css">
	.st0{fill:#2C3578;}
	.st1{fill:#343A7B;}
</style>
<g>
	<path class="st0" d="M50.24,96.07c7.79-0.06,17,1.17,25.74,5.03c3.18,1.41,6.12,3.2,8.79,5.44c1.95,1.63,3.43,3.55,4.37,5.95
		c1,2.55,2.97,3.93,5.69,4.17c3.08,0.28,6.23-0.16,7.47-3.24c3.1-7.69,9.79-10.68,16.67-13.46c5.65-2.29,11.66-3.1,17.7-3.52
		c14.66-1.02,28.97,1.2,43.08,4.97c2.76,0.74,3.53,2.19,2.73,4.97c-9.44,32.75-36.79,57.71-70.35,63.47
		c-29.69,5.1-55.84-2.71-77.99-23.18C22.09,135.51,14,121.83,9.47,106.05c-0.71-2.48,0.06-3.93,2.54-4.62
		C23.97,98.13,36.13,96.14,50.24,96.07z"/>
	<path class="st1" d="M96.03,70.15c-5.86,0-11.73-0.02-17.59,0.02c-1.01,0.01-1.43-0.16-1.42-1.33c0.05-11.72,0.04-23.45,0.01-35.17
		c0-1.02,0.23-1.31,1.29-1.3c11.82,0.04,23.64,0.03,35.46,0.01c0.85,0,1.18,0.14,1.17,1.1c-0.04,11.86-0.04,23.72,0,35.58
		c0,0.98-0.35,1.1-1.19,1.1C107.84,70.13,101.94,70.15,96.03,70.15z M96.21,35.62c-4.89,0-9.79,0.03-14.68-0.02
		c-0.98-0.01-1.23,0.29-1.23,1.25c0.03,9.65,0.03,19.29,0,28.94c0,0.99,0.29,1.22,1.25,1.22c9.65-0.03,19.3-0.03,28.95,0
		c0.99,0,1.23-0.3,1.22-1.25c-0.03-9.65-0.03-19.29,0-28.94c0-0.99-0.29-1.23-1.24-1.22C105.72,35.64,100.96,35.62,96.21,35.62z"/>
	<path class="st0" d="M180.67,95.89c-2.54-0.2-4.79-0.78-7.03-1.43c-10.39-2.99-21-4.18-31.78-3.86
		c-11.96,0.35-23.28,3.03-33.49,9.56c-2.26,1.45-4.33,3.13-6.24,5.02c-0.95,0.94-1.85,1.93-3.04,3.18c0.15-1.52,0.68-2.45,1.24-3.33
		c3.44-5.4,8.09-9.54,13.6-12.72c6.16-3.56,12.9-5.35,19.88-6.47c6.06-0.97,12.14-0.97,18.22-0.72c7.13,0.3,14.13,1.64,21.12,3.07
		c2.02,0.41,3.42,1.29,4.42,3.08C178.44,92.85,179.56,94.26,180.67,95.89z"/>
	<path class="st0" d="M46.22,84.93c7.16-0.01,14.23,0.75,21.08,2.92c8.16,2.59,15.42,6.68,21.1,13.23c0.39,0.45,0.73,0.95,1.08,1.43
		c0.23,0.32,0.32,0.68,0.02,1.01c-0.35,0.39-0.77,0.27-1.12,0.03c-0.6-0.43-1.16-0.91-1.73-1.38c-5.41-4.42-11.84-6.72-18.37-8.78
		C62.64,91.62,56.8,91,50.9,90.71c-11.74-0.57-23.2,0.99-34.48,4.16c-1.1,0.31-2.2,0.64-3.29,0.96c-0.45,0.13-0.96,0.31-1.23-0.21
		c-0.22-0.42-0.04-0.83,0.17-1.29c2.32-5.05,6.76-6.54,11.78-7.32c7.33-1.14,14.68-1.99,22.1-2.08
		C46.04,84.93,46.13,84.93,46.22,84.93z"/>
	<path class="st0" d="M94.7,99.33c-3.14-3.15-5.99-6.18-9.55-8.39c-7.09-4.41-14.74-7.34-23.01-8.69
		c-8.67-1.41-17.34-1.13-26.01-0.22c-1.91,0.2-3.8,0.65-5.7,0.99c-0.5,0.09-1.04,0.24-1.39-0.26c-0.39-0.55-0.08-1.04,0.27-1.5
		c0.84-1.1,1.72-2.17,2.48-3.32c0.98-1.47,2.37-2.13,4.05-2.26c4.79-0.37,9.57-0.39,14.37-0.17c7.11,0.32,14.07,1.44,20.8,3.75
		c6.69,2.3,12.75,5.71,17.83,10.69C91.27,92.32,93.96,96.65,94.7,99.33z"/>
	<path class="st0" d="M97.63,98.29c1.3-3.23,3.14-5.93,5.47-8.31c6.45-6.6,14.52-10.27,23.31-12.36c9.15-2.17,18.47-2.75,27.86-2
		c0.64,0.05,1.29,0.02,1.94,0.02c1.47,0.01,2.68,0.58,3.6,1.73c1.12,1.4,2.07,2.93,3.42,4.13c0.32,0.28,0.31,0.67,0.12,1.02
		c-0.36,0.62-0.96,0.66-1.58,0.55c-1.49-0.27-2.97-0.57-4.46-0.84c-6.89-1.22-13.82-1.36-20.79-0.84c-8.9,0.67-17.35,2.9-25.29,6.98
		c-4.41,2.26-8.48,5.01-11.74,8.82C99.03,97.71,98.51,98.13,97.63,98.29z"/>
	<path class="st1" d="M69.01,42.11c-0.87,0-1.76-0.07-2.62,0.02c-1.02,0.11-1.2-0.31-1.18-1.23c0.05-2.01,0.01-2.01,2.07-2.01
		c1.47,0,2.95,0.07,4.41-0.02c1.09-0.07,1.4,0.35,1.26,1.34c-0.05,0.32-0.04,0.65,0,0.96c0.08,0.69-0.15,1-0.91,0.96
		C71.03,42.06,70.02,42.11,69.01,42.11z"/>
	<path class="st1" d="M68.9,49.31c-0.64,0-1.3-0.08-1.93,0.02c-1.43,0.22-1.84-0.31-1.79-1.75c0.04-1.18,0.26-1.61,1.52-1.52
		c1.69,0.12,3.4,0.08,5.1,0.01c0.91-0.04,1.27,0.25,1.16,1.16c-0.06,0.45-0.03,0.92-0.01,1.38c0.03,0.55-0.22,0.72-0.74,0.7
		C71.11,49.3,70,49.31,68.9,49.31z"/>
	<path class="st1" d="M90.83,24.65c0-0.69-0.01-1.38,0-2.07c0.03-2.01-0.29-1.69,1.74-1.8c1.13-0.06,1.53,0.25,1.46,1.43
		c-0.1,1.79-0.06,3.59-0.01,5.39c0.02,0.79-0.24,1.1-1.01,0.99c-0.18-0.03-0.37-0.03-0.55,0c-1.29,0.23-1.86-0.21-1.65-1.59
		C90.92,26.23,90.83,25.43,90.83,24.65z"/>
	<path class="st1" d="M86.88,24.72c0,0.74-0.08,1.48,0.02,2.21c0.17,1.29-0.22,1.7-1.61,1.71c-1.43,0.01-1.81-0.4-1.7-1.77
		c0.13-1.65,0.07-3.32,0.01-4.97c-0.03-0.8,0.15-1.23,1.05-1.11c0.45,0.06,0.92,0.04,1.38,0c0.69-0.06,0.87,0.26,0.85,0.89
		C86.85,22.7,86.88,23.71,86.88,24.72z"/>
	<path class="st1" d="M101.22,24.75c0,0.97-0.04,1.93,0.01,2.9c0.04,0.72-0.22,1.01-0.94,0.94c-0.41-0.04-0.83-0.05-1.24,0
		c-0.85,0.12-1.1-0.2-1.07-1.06c0.07-1.88,0.06-3.77,0-5.66c-0.02-0.81,0.15-1.23,1.05-1.09c0.27,0.04,0.56,0.04,0.83,0
		c1.07-0.17,1.5,0.23,1.38,1.34C101.14,23,101.22,23.88,101.22,24.75z"/>
	<path class="st1" d="M122.94,42.11c-0.74,0-1.49-0.08-2.21,0.02c-1.32,0.19-1.69-0.27-1.68-1.62c0.01-1.35,0.37-1.74,1.7-1.65
		c1.7,0.12,3.41,0.05,5.12,0.02c0.66-0.01,0.98,0.09,1,0.88c0.07,2.35,0.11,2.35-2.26,2.35C124.04,42.11,123.49,42.11,122.94,42.11z
		"/>
	<path class="st1" d="M123.03,49.31c-0.74,0-1.48,0.04-2.21-0.01c-0.56-0.04-1.44,0.35-1.63-0.27c-0.24-0.8-0.12-1.74-0.02-2.6
		c0.05-0.49,0.59-0.32,0.93-0.32c1.94-0.02,3.88,0.02,5.81-0.02c0.72-0.02,0.93,0.21,0.95,0.93c0.05,2.3,0.09,2.3-2.17,2.3
		C124.13,49.31,123.58,49.31,123.03,49.31z"/>
	<path class="st1" d="M69.04,56.48c-0.92,0-1.85-0.06-2.76,0.02c-0.89,0.07-1.16-0.28-1.05-1.1c0.04-0.27,0.04-0.56,0-0.83
		c-0.17-1.07,0.23-1.44,1.34-1.37c1.74,0.1,3.5,0.08,5.24,0c0.95-0.04,1.24,0.3,1.14,1.18c-0.05,0.41-0.03,0.83,0,1.24
		c0.05,0.65-0.2,0.91-0.87,0.88C71.07,56.44,70.05,56.48,69.04,56.48z"/>
	<path class="st1" d="M122.94,53.22c0.6,0,1.19,0,1.79,0c2.11,0,2.59,0.64,2.11,2.76c-0.09,0.43-0.3,0.5-0.66,0.49
		c-2.11-0.01-4.23-0.01-6.34,0c-0.51,0-0.7-0.16-0.76-0.7c-0.28-2.44-0.19-2.56,2.2-2.56C121.84,53.22,122.39,53.22,122.94,53.22z"
		/>
	<path class="st1" d="M69.16,63.68c-0.69,0-1.39,0.05-2.07-0.02c-0.6-0.06-1.51,0.39-1.74-0.28c-0.27-0.78-0.11-1.72-0.07-2.59
		c0.02-0.46,0.46-0.36,0.76-0.36c2.02-0.01,4.05,0.01,6.07-0.01c0.57-0.01,0.79,0.15,0.85,0.76c0.23,2.45,0.21,2.5-2.28,2.5
		C70.17,63.68,69.67,63.68,69.16,63.68z"/>
	<path class="st1" d="M122.92,60.43c0.73,0,1.47-0.04,2.2,0.01c0.56,0.04,1.43-0.34,1.61,0.27c0.24,0.85,0.12,1.82,0.03,2.73
		c-0.04,0.38-0.53,0.24-0.83,0.24c-1.93,0.01-3.86-0.04-5.79,0.03c-0.89,0.03-1.15-0.29-1.05-1.11c0.04-0.32,0.05-0.65,0-0.96
		c-0.14-0.97,0.24-1.31,1.21-1.22C121.17,60.49,122.05,60.43,122.92,60.43z"/>
	<path class="st1" d="M86.88,77.93c0,0.96-0.04,1.93,0.01,2.89c0.04,0.73-0.22,0.92-0.93,0.93c-2.34,0.05-2.34,0.09-2.34-2.26
		c0-1.51,0.04-3.03-0.02-4.54c-0.03-0.79,0.23-1,1-1c2.27-0.02,2.27-0.05,2.27,2.2C86.88,76.74,86.88,77.33,86.88,77.93z"/>
	<path class="st1" d="M90.83,77.77c0-0.92,0.06-1.85-0.02-2.77c-0.08-0.89,0.27-1.16,1.09-1.05c0.36,0.05,0.74,0.05,1.11,0
		c0.78-0.1,1.04,0.2,1.02,0.99c-0.05,1.94-0.05,3.87,0,5.81c0.02,0.81-0.27,1.08-1.03,0.98c-0.32-0.04-0.65-0.05-0.97,0
		c-0.97,0.15-1.31-0.22-1.22-1.2C90.89,79.63,90.83,78.7,90.83,77.77z"/>
	<path class="st1" d="M101.22,77.86c0,0.78-0.09,1.58,0.02,2.35c0.18,1.31-0.36,1.54-1.58,1.59c-1.42,0.06-1.8-0.36-1.69-1.74
		c0.13-1.7,0.07-3.41,0.01-5.11c-0.03-0.79,0.22-1,1-1c2.24,0,2.24-0.04,2.24,2.25C101.22,76.75,101.22,77.3,101.22,77.86z"/>
	<path class="st0" d="M105.21,24.65c0-0.6,0-1.2,0-1.8c0-2.1,0.47-2.46,2.56-2.06c0.42,0.08,0.54,0.26,0.54,0.63
		c0,2.17-0.01,4.34,0.01,6.5c0,0.47-0.15,0.69-0.64,0.65c-0.14-0.01-0.28,0-0.42,0c-2.05,0.04-2.05,0.04-2.05-1.99
		C105.21,25.94,105.21,25.3,105.21,24.65z"/>
	<path class="st0" d="M105.21,77.71c0-0.55,0-1.1,0-1.65c0-2.27,0-2.24,2.34-2.11c0.6,0.03,0.78,0.21,0.77,0.8
		c-0.03,2.07-0.03,4.13,0,6.2c0.01,0.59-0.17,0.76-0.77,0.8c-2.34,0.13-2.34,0.16-2.34-2.11C105.21,79,105.21,78.36,105.21,77.71z"
		/>
</g>
</svg>
