
<svg width="619" height="188" viewBox="0 0 619 188" fill="none" xmlns="http://www.w3.org/2000/svg">
<rect width="600" height="180" rx="20" fill="black"/>
<rect x="8" y="8" width="600" height="180" rx="20" fill="black"/>
<rect x="5" y="5" width="590" height="170" rx="16" fill="white"/>
<rect x="30" y="26" width="128" height="128" rx="27" fill="black"/>
<path d="M94 101.25L82.75 90M94 101.25C99.2382 99.2578 104.263 96.7452 109 93.75M94 101.25V120C94 120 105.363 117.938 109 112.5C113.05 106.425 109 93.75 109 93.75M82.75 90C84.7455 84.8229 87.2583 79.8602 90.25 75.1875C94.6194 68.2012 100.704 62.4489 107.924 58.4778C115.144 54.5068 123.26 52.4489 131.5 52.5C131.5 62.7 128.575 80.625 109 93.75M82.75 90L64 90C64 90 66.0625 78.6375 71.5 75C77.575 70.95 90.25 75 90.25 75M65.875 106.875C60.25 111.6 58.375 125.625 58.375 125.625C58.375 125.625 72.4 123.75 77.125 118.125C79.7875 114.975 79.75 110.138 76.7875 107.213C75.3299 105.821 73.4099 105.017 71.3958 104.955C69.3818 104.893 67.4158 105.577 65.875 106.875Z" stroke="white" stroke-width="7.5" stroke-linecap="round" stroke-linejoin="round"/>
<path d="M181.278 57.3821V52.8182H202.781V57.3821H194.766V79H189.294V57.3821H181.278ZM206.22 79V59.3636H211.666V79H206.22ZM208.956 56.8324C208.146 56.8324 207.452 56.5639 206.872 56.027C206.301 55.4815 206.016 54.8295 206.016 54.071C206.016 53.321 206.301 52.6776 206.872 52.1406C207.452 51.5952 208.146 51.3224 208.956 51.3224C209.766 51.3224 210.456 51.5952 211.027 52.1406C211.607 52.6776 211.896 53.321 211.896 54.071C211.896 54.8295 211.607 55.4815 211.027 56.027C210.456 56.5639 209.766 56.8324 208.956 56.8324ZM221.475 67.6477V79H216.029V59.3636H221.219V62.8281H221.449C221.884 61.6861 222.613 60.7827 223.635 60.1179C224.658 59.4446 225.898 59.108 227.355 59.108C228.719 59.108 229.908 59.4062 230.922 60.0028C231.936 60.5994 232.725 61.4517 233.287 62.5597C233.85 63.6591 234.131 64.9716 234.131 66.4972V79H228.685V67.4688C228.694 66.267 228.387 65.3295 227.765 64.6562C227.142 63.9744 226.286 63.6335 225.195 63.6335C224.462 63.6335 223.814 63.7912 223.252 64.1065C222.698 64.4219 222.263 64.8821 221.948 65.4872C221.641 66.0838 221.483 66.804 221.475 67.6477ZM241.082 86.3636C240.392 86.3636 239.744 86.3082 239.139 86.1974C238.543 86.0952 238.048 85.9631 237.656 85.8011L238.884 81.7358C239.523 81.9318 240.098 82.0384 240.609 82.0554C241.129 82.0724 241.577 81.9531 241.952 81.6974C242.335 81.4418 242.646 81.0071 242.885 80.3935L243.205 79.5625L236.161 59.3636H241.888L245.953 73.7841H246.158L250.261 59.3636H256.027L248.395 81.1222C248.028 82.179 247.53 83.0994 246.899 83.8835C246.277 84.6761 245.489 85.2855 244.534 85.7116C243.58 86.1463 242.429 86.3636 241.082 86.3636ZM258.916 79V52.8182H264.452V74.4361H275.676V79H258.916ZM284.839 79.3707C283.586 79.3707 282.47 79.1534 281.49 78.7188C280.51 78.2756 279.734 77.6236 279.163 76.7628C278.6 75.8935 278.319 74.8111 278.319 73.5156C278.319 72.4247 278.52 71.5085 278.92 70.767C279.321 70.0256 279.866 69.429 280.556 68.9773C281.247 68.5256 282.031 68.1847 282.909 67.9545C283.795 67.7244 284.724 67.5625 285.696 67.4688C286.838 67.3494 287.758 67.2386 288.457 67.1364C289.156 67.0256 289.663 66.8636 289.978 66.6506C290.294 66.4375 290.451 66.1222 290.451 65.7045V65.6278C290.451 64.8182 290.196 64.1918 289.684 63.7486C289.181 63.3054 288.466 63.0838 287.537 63.0838C286.556 63.0838 285.777 63.3011 285.197 63.7358C284.618 64.1619 284.234 64.6989 284.047 65.3466L279.01 64.9375C279.265 63.7443 279.768 62.7131 280.518 61.8438C281.268 60.9659 282.235 60.2926 283.42 59.8239C284.613 59.3466 285.994 59.108 287.562 59.108C288.653 59.108 289.697 59.2358 290.694 59.4915C291.7 59.7472 292.591 60.1435 293.366 60.6804C294.15 61.2173 294.768 61.9077 295.22 62.7514C295.672 63.5866 295.897 64.5881 295.897 65.7557V79H290.733V76.277H290.579C290.264 76.8906 289.842 77.4318 289.314 77.9006C288.785 78.3608 288.15 78.723 287.409 78.9872C286.667 79.2429 285.811 79.3707 284.839 79.3707ZM286.399 75.6122C287.2 75.6122 287.907 75.4545 288.521 75.1392C289.135 74.8153 289.616 74.3807 289.966 73.8352C290.315 73.2898 290.49 72.6719 290.49 71.9815V69.8977C290.319 70.0085 290.085 70.1108 289.787 70.2045C289.497 70.2898 289.169 70.3707 288.802 70.4474C288.436 70.5156 288.069 70.5795 287.703 70.6392C287.336 70.6903 287.004 70.7372 286.706 70.7798C286.066 70.8736 285.508 71.0227 285.031 71.2273C284.554 71.4318 284.183 71.7088 283.919 72.0582C283.654 72.3991 283.522 72.8253 283.522 73.3366C283.522 74.0781 283.791 74.6449 284.328 75.0369C284.873 75.4205 285.564 75.6122 286.399 75.6122ZM312.715 70.6392V59.3636H318.161V79H312.932V75.4332H312.728C312.284 76.5838 311.547 77.5085 310.516 78.2074C309.493 78.9062 308.245 79.2557 306.77 79.2557C305.458 79.2557 304.303 78.9574 303.306 78.3608C302.309 77.7642 301.529 76.9162 300.966 75.8168C300.412 74.7173 300.131 73.4006 300.123 71.8665V59.3636H305.569V70.8949C305.577 72.054 305.888 72.9702 306.502 73.6435C307.115 74.3168 307.938 74.6534 308.969 74.6534C309.625 74.6534 310.239 74.5043 310.81 74.206C311.381 73.8991 311.841 73.4474 312.191 72.8509C312.549 72.2543 312.723 71.517 312.715 70.6392ZM327.963 67.6477V79H322.517V59.3636H327.707V62.8281H327.938C328.372 61.6861 329.101 60.7827 330.124 60.1179C331.146 59.4446 332.386 59.108 333.844 59.108C335.207 59.108 336.396 59.4062 337.411 60.0028C338.425 60.5994 339.213 61.4517 339.776 62.5597C340.338 63.6591 340.619 64.9716 340.619 66.4972V79H335.173V67.4688C335.182 66.267 334.875 65.3295 334.253 64.6562C333.631 63.9744 332.774 63.6335 331.683 63.6335C330.95 63.6335 330.303 63.7912 329.74 64.1065C329.186 64.4219 328.751 64.8821 328.436 65.4872C328.129 66.0838 327.972 66.804 327.963 67.6477ZM353.784 79.3835C351.772 79.3835 350.042 78.9574 348.593 78.1051C347.153 77.2443 346.045 76.0511 345.27 74.5256C344.502 73 344.119 71.2443 344.119 69.2585C344.119 67.2472 344.507 65.483 345.282 63.9659C346.066 62.4403 347.179 61.2514 348.619 60.3991C350.059 59.5384 351.772 59.108 353.758 59.108C355.471 59.108 356.971 59.419 358.258 60.0412C359.545 60.6634 360.564 61.5369 361.314 62.6619C362.064 63.7869 362.477 65.108 362.554 66.625H357.414C357.27 65.6449 356.886 64.8565 356.264 64.2599C355.65 63.6548 354.845 63.3523 353.848 63.3523C353.004 63.3523 352.267 63.5824 351.636 64.0426C351.014 64.4943 350.528 65.1548 350.179 66.0241C349.829 66.8935 349.654 67.946 349.654 69.1818C349.654 70.4347 349.825 71.5 350.166 72.3778C350.515 73.2557 351.005 73.9247 351.636 74.3849C352.267 74.8452 353.004 75.0753 353.848 75.0753C354.47 75.0753 355.028 74.9474 355.522 74.6918C356.025 74.4361 356.439 74.0653 356.762 73.5795C357.095 73.0852 357.312 72.4929 357.414 71.8026H362.554C362.468 73.3026 362.059 74.6236 361.326 75.7656C360.602 76.8991 359.6 77.7855 358.322 78.4247C357.044 79.0639 355.531 79.3835 353.784 79.3835ZM371.487 67.6477V79H366.04V52.8182H371.333V62.8281H371.563C372.006 61.669 372.722 60.7614 373.711 60.1051C374.7 59.4403 375.94 59.108 377.431 59.108C378.795 59.108 379.984 59.4062 380.998 60.0028C382.021 60.5909 382.813 61.4389 383.376 62.5469C383.947 63.6463 384.228 64.9631 384.219 66.4972V79H378.773V67.4688C378.782 66.2585 378.475 65.3168 377.853 64.6435C377.239 63.9702 376.379 63.6335 375.271 63.6335C374.529 63.6335 373.873 63.7912 373.302 64.1065C372.739 64.4219 372.296 64.8821 371.972 65.4872C371.657 66.0838 371.495 66.804 371.487 67.6477Z" fill="black"/>
<path d="M182.818 123V99.7273H185.545L196 117.591H196.227V99.7273H199V123H196.273L185.864 105.273H185.636V123H182.818ZM201.864 115.955V113.636H211.773V115.955H201.864ZM206.818 111.636C205.697 111.636 204.727 111.413 203.909 110.966C203.098 110.519 202.47 109.894 202.023 109.091C201.583 108.288 201.364 107.348 201.364 106.273V104.727C201.364 103.652 201.583 102.712 202.023 101.909C202.462 101.106 203.087 100.481 203.898 100.034C204.708 99.5871 205.667 99.3636 206.773 99.3636C207.894 99.3636 208.856 99.5871 209.659 100.034C210.47 100.481 211.091 101.106 211.523 101.909C211.962 102.712 212.182 103.652 212.182 104.727V106.273C212.182 107.348 211.966 108.288 211.534 109.091C211.102 109.894 210.485 110.519 209.682 110.966C208.879 111.413 207.924 111.636 206.818 111.636ZM206.818 109.364C207.705 109.364 208.364 109.083 208.795 108.523C209.235 107.955 209.455 107.205 209.455 106.273V104.727C209.455 103.818 209.235 103.083 208.795 102.523C208.356 101.962 207.682 101.682 206.773 101.682C205.864 101.682 205.189 101.962 204.75 102.523C204.311 103.083 204.091 103.818 204.091 104.727V106.273C204.091 107.205 204.311 107.955 204.75 108.523C205.197 109.083 205.886 109.364 206.818 109.364ZM225.403 99.7273V123H222.585V102.682H222.449L216.767 106.455V103.591L222.585 99.7273H225.403ZM241.506 123V99.7273H249.369C251.195 99.7273 252.688 100.057 253.847 100.716C255.013 101.367 255.877 102.25 256.438 103.364C256.998 104.477 257.278 105.72 257.278 107.091C257.278 108.462 256.998 109.708 256.438 110.83C255.884 111.951 255.028 112.845 253.869 113.511C252.71 114.17 251.225 114.5 249.415 114.5H243.778V112H249.324C250.574 112 251.578 111.784 252.335 111.352C253.093 110.92 253.642 110.337 253.983 109.602C254.331 108.86 254.506 108.023 254.506 107.091C254.506 106.159 254.331 105.326 253.983 104.591C253.642 103.856 253.089 103.28 252.324 102.864C251.559 102.439 250.544 102.227 249.278 102.227H244.324V123H241.506ZM261.455 123V105.545H264.045V108.182H264.227C264.545 107.318 265.121 106.617 265.955 106.08C266.788 105.542 267.727 105.273 268.773 105.273C268.97 105.273 269.216 105.277 269.511 105.284C269.807 105.292 270.03 105.303 270.182 105.318V108.045C270.091 108.023 269.883 107.989 269.557 107.943C269.239 107.89 268.902 107.864 268.545 107.864C267.697 107.864 266.939 108.042 266.273 108.398C265.614 108.746 265.091 109.231 264.705 109.852C264.326 110.466 264.136 111.167 264.136 111.955V123H261.455ZM279.92 123.364C278.345 123.364 276.962 122.989 275.773 122.239C274.591 121.489 273.667 120.439 273 119.091C272.341 117.742 272.011 116.167 272.011 114.364C272.011 112.545 272.341 110.958 273 109.602C273.667 108.246 274.591 107.193 275.773 106.443C276.962 105.693 278.345 105.318 279.92 105.318C281.496 105.318 282.875 105.693 284.057 106.443C285.246 107.193 286.17 108.246 286.83 109.602C287.496 110.958 287.83 112.545 287.83 114.364C287.83 116.167 287.496 117.742 286.83 119.091C286.17 120.439 285.246 121.489 284.057 122.239C282.875 122.989 281.496 123.364 279.92 123.364ZM279.92 120.955C281.117 120.955 282.102 120.648 282.875 120.034C283.648 119.42 284.22 118.614 284.591 117.614C284.962 116.614 285.148 115.53 285.148 114.364C285.148 113.197 284.962 112.11 284.591 111.102C284.22 110.095 283.648 109.28 282.875 108.659C282.102 108.038 281.117 107.727 279.92 107.727C278.723 107.727 277.739 108.038 276.966 108.659C276.193 109.28 275.621 110.095 275.25 111.102C274.879 112.11 274.693 113.197 274.693 114.364C274.693 115.53 274.879 116.614 275.25 117.614C275.621 118.614 276.193 119.42 276.966 120.034C277.739 120.648 278.723 120.955 279.92 120.955ZM298.514 123.364C297.06 123.364 295.776 122.996 294.662 122.261C293.548 121.519 292.677 120.473 292.048 119.125C291.42 117.769 291.105 116.167 291.105 114.318C291.105 112.485 291.42 110.894 292.048 109.545C292.677 108.197 293.552 107.155 294.673 106.42C295.795 105.686 297.09 105.318 298.56 105.318C299.696 105.318 300.594 105.508 301.253 105.886C301.92 106.258 302.427 106.682 302.776 107.159C303.132 107.629 303.408 108.015 303.605 108.318H303.832V99.7273H306.514V123H303.923V120.318H303.605C303.408 120.636 303.128 121.038 302.764 121.523C302.401 122 301.882 122.428 301.207 122.807C300.533 123.178 299.635 123.364 298.514 123.364ZM298.878 120.955C299.954 120.955 300.863 120.674 301.605 120.114C302.348 119.545 302.912 118.761 303.298 117.761C303.685 116.754 303.878 115.591 303.878 114.273C303.878 112.97 303.688 111.83 303.31 110.852C302.931 109.867 302.37 109.102 301.628 108.557C300.885 108.004 299.969 107.727 298.878 107.727C297.741 107.727 296.795 108.019 296.037 108.602C295.287 109.178 294.723 109.962 294.344 110.955C293.973 111.939 293.787 113.045 293.787 114.273C293.787 115.515 293.976 116.644 294.355 117.659C294.741 118.667 295.31 119.47 296.06 120.068C296.817 120.659 297.757 120.955 298.878 120.955ZM322.798 115.864V105.545H325.48V123H322.798V120.045H322.616C322.207 120.932 321.571 121.686 320.707 122.307C319.844 122.92 318.753 123.227 317.435 123.227C316.344 123.227 315.374 122.989 314.526 122.511C313.677 122.027 313.01 121.299 312.526 120.33C312.041 119.352 311.798 118.121 311.798 116.636V105.545H314.48V116.455C314.48 117.727 314.836 118.742 315.548 119.5C316.268 120.258 317.185 120.636 318.298 120.636C318.965 120.636 319.643 120.466 320.332 120.125C321.029 119.784 321.613 119.261 322.082 118.557C322.56 117.852 322.798 116.955 322.798 115.864ZM337.483 123.364C335.847 123.364 334.438 122.977 333.256 122.205C332.074 121.432 331.165 120.367 330.528 119.011C329.892 117.655 329.574 116.106 329.574 114.364C329.574 112.591 329.9 111.027 330.551 109.67C331.21 108.307 332.127 107.242 333.301 106.477C334.483 105.705 335.862 105.318 337.438 105.318C338.665 105.318 339.771 105.545 340.756 106C341.741 106.455 342.547 107.091 343.176 107.909C343.805 108.727 344.195 109.682 344.347 110.773H341.665C341.46 109.977 341.006 109.273 340.301 108.659C339.604 108.038 338.665 107.727 337.483 107.727C336.438 107.727 335.521 108 334.733 108.545C333.953 109.083 333.343 109.845 332.903 110.83C332.472 111.807 332.256 112.955 332.256 114.273C332.256 115.621 332.468 116.795 332.892 117.795C333.324 118.795 333.93 119.572 334.71 120.125C335.498 120.678 336.422 120.955 337.483 120.955C338.18 120.955 338.812 120.833 339.381 120.591C339.949 120.348 340.43 120 340.824 119.545C341.218 119.091 341.498 118.545 341.665 117.909H344.347C344.195 118.939 343.82 119.867 343.222 120.693C342.631 121.511 341.847 122.163 340.869 122.648C339.9 123.125 338.771 123.364 337.483 123.364ZM355.858 105.545V107.818H346.812V105.545H355.858ZM349.449 101.364H352.131V118C352.131 118.758 352.241 119.326 352.46 119.705C352.688 120.076 352.975 120.326 353.324 120.455C353.68 120.576 354.055 120.636 354.449 120.636C354.744 120.636 354.987 120.621 355.176 120.591C355.366 120.553 355.517 120.523 355.631 120.5L356.176 122.909C355.994 122.977 355.741 123.045 355.415 123.114C355.089 123.189 354.676 123.227 354.176 123.227C353.419 123.227 352.676 123.064 351.949 122.739C351.229 122.413 350.631 121.917 350.153 121.25C349.684 120.583 349.449 119.742 349.449 118.727V101.364ZM375.983 123.364C374.407 123.364 373.025 122.989 371.835 122.239C370.653 121.489 369.729 120.439 369.062 119.091C368.403 117.742 368.074 116.167 368.074 114.364C368.074 112.545 368.403 110.958 369.062 109.602C369.729 108.246 370.653 107.193 371.835 106.443C373.025 105.693 374.407 105.318 375.983 105.318C377.559 105.318 378.938 105.693 380.119 106.443C381.309 107.193 382.233 108.246 382.892 109.602C383.559 110.958 383.892 112.545 383.892 114.364C383.892 116.167 383.559 117.742 382.892 119.091C382.233 120.439 381.309 121.489 380.119 122.239C378.938 122.989 377.559 123.364 375.983 123.364ZM375.983 120.955C377.18 120.955 378.165 120.648 378.938 120.034C379.71 119.42 380.282 118.614 380.653 117.614C381.025 116.614 381.21 115.53 381.21 114.364C381.21 113.197 381.025 112.11 380.653 111.102C380.282 110.095 379.71 109.28 378.938 108.659C378.165 108.038 377.18 107.727 375.983 107.727C374.786 107.727 373.801 108.038 373.028 108.659C372.256 109.28 371.684 110.095 371.312 111.102C370.941 112.11 370.756 113.197 370.756 114.364C370.756 115.53 370.941 116.614 371.312 117.614C371.684 118.614 372.256 119.42 373.028 120.034C373.801 120.648 374.786 120.955 375.983 120.955ZM395.759 105.545V107.818H386.349V105.545H395.759ZM389.168 123V103.136C389.168 102.136 389.402 101.303 389.872 100.636C390.342 99.9697 390.952 99.4697 391.702 99.1364C392.452 98.803 393.243 98.6364 394.077 98.6364C394.736 98.6364 395.274 98.6894 395.69 98.7955C396.107 98.9015 396.418 99 396.622 99.0909L395.849 101.409C395.713 101.364 395.524 101.307 395.281 101.239C395.046 101.17 394.736 101.136 394.349 101.136C393.463 101.136 392.823 101.36 392.429 101.807C392.043 102.254 391.849 102.909 391.849 103.773V123H389.168ZM416.108 105.545V107.818H407.062V105.545H416.108ZM409.699 101.364H412.381V118C412.381 118.758 412.491 119.326 412.71 119.705C412.938 120.076 413.225 120.326 413.574 120.455C413.93 120.576 414.305 120.636 414.699 120.636C414.994 120.636 415.237 120.621 415.426 120.591C415.616 120.553 415.767 120.523 415.881 120.5L416.426 122.909C416.244 122.977 415.991 123.045 415.665 123.114C415.339 123.189 414.926 123.227 414.426 123.227C413.669 123.227 412.926 123.064 412.199 122.739C411.479 122.413 410.881 121.917 410.403 121.25C409.934 120.583 409.699 119.742 409.699 118.727V101.364ZM423.199 112.5V123H420.517V99.7273H423.199V108.273H423.426C423.835 107.371 424.449 106.655 425.267 106.125C426.093 105.587 427.191 105.318 428.562 105.318C429.752 105.318 430.794 105.557 431.688 106.034C432.581 106.504 433.275 107.227 433.767 108.205C434.267 109.174 434.517 110.409 434.517 111.909V123H431.835V112.091C431.835 110.705 431.475 109.633 430.756 108.875C430.044 108.11 429.055 107.727 427.79 107.727C426.911 107.727 426.123 107.913 425.426 108.284C424.737 108.655 424.191 109.197 423.79 109.909C423.396 110.621 423.199 111.485 423.199 112.5ZM446.741 123.364C445.06 123.364 443.609 122.992 442.389 122.25C441.177 121.5 440.241 120.455 439.582 119.114C438.931 117.765 438.605 116.197 438.605 114.409C438.605 112.621 438.931 111.045 439.582 109.682C440.241 108.311 441.158 107.242 442.332 106.477C443.514 105.705 444.893 105.318 446.469 105.318C447.378 105.318 448.276 105.47 449.162 105.773C450.048 106.076 450.855 106.568 451.582 107.25C452.31 107.924 452.889 108.818 453.321 109.932C453.753 111.045 453.969 112.417 453.969 114.045V115.182H440.514V112.864H451.241C451.241 111.879 451.045 111 450.651 110.227C450.264 109.455 449.711 108.845 448.991 108.398C448.279 107.951 447.438 107.727 446.469 107.727C445.401 107.727 444.476 107.992 443.696 108.523C442.923 109.045 442.329 109.727 441.912 110.568C441.495 111.409 441.287 112.311 441.287 113.273V114.818C441.287 116.136 441.514 117.254 441.969 118.17C442.431 119.08 443.071 119.773 443.889 120.25C444.707 120.72 445.658 120.955 446.741 120.955C447.446 120.955 448.082 120.856 448.651 120.659C449.226 120.455 449.723 120.152 450.139 119.75C450.556 119.341 450.878 118.833 451.105 118.227L453.696 118.955C453.423 119.833 452.965 120.606 452.321 121.273C451.677 121.932 450.882 122.447 449.935 122.818C448.988 123.182 447.923 123.364 446.741 123.364ZM471.639 123L465.276 99.7273H468.139L473.003 118.682H473.23L478.185 99.7273H481.366L486.321 118.682H486.548L491.412 99.7273H494.276L487.912 123H485.003L479.866 104.455H479.685L474.548 123H471.639ZM503.116 123.364C501.435 123.364 499.984 122.992 498.764 122.25C497.552 121.5 496.616 120.455 495.957 119.114C495.306 117.765 494.98 116.197 494.98 114.409C494.98 112.621 495.306 111.045 495.957 109.682C496.616 108.311 497.533 107.242 498.707 106.477C499.889 105.705 501.268 105.318 502.844 105.318C503.753 105.318 504.651 105.47 505.537 105.773C506.423 106.076 507.23 106.568 507.957 107.25C508.685 107.924 509.264 108.818 509.696 109.932C510.128 111.045 510.344 112.417 510.344 114.045V115.182H496.889V112.864H507.616C507.616 111.879 507.42 111 507.026 110.227C506.639 109.455 506.086 108.845 505.366 108.398C504.654 107.951 503.813 107.727 502.844 107.727C501.776 107.727 500.851 107.992 500.071 108.523C499.298 109.045 498.704 109.727 498.287 110.568C497.87 111.409 497.662 112.311 497.662 113.273V114.818C497.662 116.136 497.889 117.254 498.344 118.17C498.806 119.08 499.446 119.773 500.264 120.25C501.082 120.72 502.033 120.955 503.116 120.955C503.821 120.955 504.457 120.856 505.026 120.659C505.601 120.455 506.098 120.152 506.514 119.75C506.931 119.341 507.253 118.833 507.48 118.227L510.071 118.955C509.798 119.833 509.34 120.606 508.696 121.273C508.052 121.932 507.257 122.447 506.31 122.818C505.363 123.182 504.298 123.364 503.116 123.364ZM521.741 123.364C520.06 123.364 518.609 122.992 517.389 122.25C516.177 121.5 515.241 120.455 514.582 119.114C513.931 117.765 513.605 116.197 513.605 114.409C513.605 112.621 513.931 111.045 514.582 109.682C515.241 108.311 516.158 107.242 517.332 106.477C518.514 105.705 519.893 105.318 521.469 105.318C522.378 105.318 523.276 105.47 524.162 105.773C525.048 106.076 525.855 106.568 526.582 107.25C527.31 107.924 527.889 108.818 528.321 109.932C528.753 111.045 528.969 112.417 528.969 114.045V115.182H515.514V112.864H526.241C526.241 111.879 526.045 111 525.651 110.227C525.264 109.455 524.711 108.845 523.991 108.398C523.279 107.951 522.438 107.727 521.469 107.727C520.401 107.727 519.476 107.992 518.696 108.523C517.923 109.045 517.329 109.727 516.912 110.568C516.495 111.409 516.287 112.311 516.287 113.273V114.818C516.287 116.136 516.514 117.254 516.969 118.17C517.431 119.08 518.071 119.773 518.889 120.25C519.707 120.72 520.658 120.955 521.741 120.955C522.446 120.955 523.082 120.856 523.651 120.659C524.226 120.455 524.723 120.152 525.139 119.75C525.556 119.341 525.878 118.833 526.105 118.227L528.696 118.955C528.423 119.833 527.965 120.606 527.321 121.273C526.677 121.932 525.882 122.447 524.935 122.818C523.988 123.182 522.923 123.364 521.741 123.364ZM535.548 116.636L535.503 113.318H536.048L543.685 105.545H547.003L538.866 113.773H538.639L535.548 116.636ZM533.048 123V99.7273H535.73V123H533.048ZM544.139 123L537.321 114.364L539.23 112.5L547.548 123H544.139Z" fill="black"/>
</svg>
